<?xml version="1.0" encoding="utf-8"?>
<!-- Generator: Adobe Illustrator 27.1.0, SVG Export Plug-In . SVG Version: 6.00 Build 0)  -->
<svg version="1.1" id="Layer_1" xmlns="http://www.w3.org/2000/svg" xmlns:xlink="http://www.w3.org/1999/xlink" x="0px" y="0px"
	 viewBox="0 0 1080 1080" style="enable-background:new 0 0 1080 1080;" xml:space="preserve">
<style type="text/css">
	.st0{fill:none;stroke:#231F20;stroke-miterlimit:10;}
	.st1{fill:#F45696;}
	.st2{fill:#4F1787;}
	.st3{fill:#FFFFFF;}
	.st4{font-family:'Poppins-BlackItalic';}
	.st5{font-size:143.9019px;}
	.st6{font-family:'Poppins-Light';}
	.st7{font-size:49.9977px;}
</style>
<path class="st1" d="M292.24,322.68L80.62,407.34c-6.79,2.72-14.18-2.29-14.18-9.6V307.3c0-2.54,2.06-4.59,4.59-4.59h217.21
	c0.68,0,1.36,0.07,2.03,0.2c0.05,0.01,0.1,0.02,0.16,0.03C300.5,304.96,301.79,318.86,292.24,322.68z"/>
<path class="st2" d="M467.74,550.2c-0.18,2.11-0.31,4.22-0.4,6.33c-2.71,64.65-61.36,126.07-63.96,128.77
	c-0.06,0.06-0.12,0.11-0.2,0.16c-1.59,1.04-20.52,13.5-31.85,20.8c-4.33,2.79-8.52,5.76-12.7,8.77
	c-41.12,29.53-156.27,30.36-169.14,30.36h0c-63.7,0-115.33-51.64-115.33-115.33V429.22c0-0.48,0.29-0.91,0.74-1.09L295,340.09
	c13.85-5.54,29.41-5.04,42.84,1.44c35.07,16.94,65.46,45.56,80.1,60.69c5.79,6,10.76,12.73,14.81,20.01l14.1,25.42
	c3.46,6.25,6.21,12.85,8.2,19.71l6.52,22.48c1.68,5.79,2.81,11.72,3.37,17.73C466.16,520.84,468.22,544.5,467.74,550.2z"/>
<g>
	<path class="st3" d="M273.07,616.58c-18.66,5.49-36.95,4.82-55.52,0c0,1.24,0,2.11,0,2.99c0,9.01,0,18.02,0,27.03
		c0,3.83-1.3,5.62-4.02,5.57c-2.63-0.05-3.91-1.83-3.91-5.49c-0.01-10.09-0.05-20.17,0.04-30.26c0.02-1.83-0.49-2.7-2.21-3.47
		c-33.94-15.1-54.42-40.93-60.17-77.63c-7.9-50.42,25.95-99.19,76.07-110.5c52.17-11.78,104.23,19.72,117.72,71.48
		c1.8,6.9,2.21,14.16,3.3,21.25c0.35,2.26,0.58,4.58,1.26,6.75c1.95,6.22,4.12,12.37,6.17,18.55c1.23,3.72,0.17,5.56-3.67,6.51
		c-3.52,0.87-7.04,1.8-10.58,2.61c-1.44,0.33-2.15,1.04-2.62,2.49c-2,6.29-4.2,12.52-6.22,18.8c-0.65,2.01-1.84,3.2-3.82,3.82
		c-2.67,0.84-6.31,1.06-7.68,2.92c-1.36,1.85-0.24,5.41-0.59,8.17c-0.18,1.42-0.87,3.07-1.87,4.06
		c-9.02,8.94-19.44,15.84-31.22,20.6c-1.85,0.75-2.6,1.6-2.58,3.71c0.13,10.33,0.08,20.67,0.05,31c-0.01,3.22-1.98,5.05-4.74,4.54
		c-2.05-0.38-3.17-1.95-3.17-4.64c-0.02-9.26-0.01-18.52-0.01-27.78C273.07,618.79,273.07,617.89,273.07,616.58z M220.91,566.81
		c0-0.05,0-0.1,0.01-0.15c2.15,0,4.3,0.07,6.44-0.01c8.01-0.32,14.67-6.38,14.95-14.08c0.25-6.93,2.6-12.75,7.05-18.04
		c4.64-5.52,7.03-12.14,7.31-19.36c0.81-21.13-15.36-37.77-36.53-37.21c-14.39,0.38-25.14,7.36-31.28,20.32
		c-5.73,12.07-3.76,26.3,4.4,36.89c3.9,5.06,6.25,10.39,6.48,16.83c0.26,7.33,5.56,13.16,12.78,14.32
		C215.27,566.76,218.11,566.66,220.91,566.81z M298.48,492.29c-3.07,0.06-6.03,1.32-8.38,3.87c-1.61,1.74-1.65,4.01-0.22,5.57
		c1.52,1.66,3.72,1.7,5.68,0.11c1.83-1.48,4.41-1.57,6.22-0.06c1.92,1.6,4.01,1.65,5.59,0.14c1.65-1.58,1.67-3.82-0.01-5.75
		C305.14,493.6,302.28,492.34,298.48,492.29z"/>
	<path class="st3" d="M225.03,558.51c0-3.29,0-6.42,0-9.55c0.01-7.69,0.16-15.38-0.04-23.06c-0.07-2.8,0.53-4.77,3.18-5.91
		c0.6-0.26,1.13-0.69,1.64-1.11c1.75-1.42,2.14-3.53,1.02-5.3c-1.11-1.74-3.55-2.63-5.16-1.27c-3.22,2.72-5.95,2.72-9.16-0.01
		c-1.6-1.36-4.1-0.48-5.15,1.29c-1.13,1.9-0.77,3.63,0.82,5.13c0.24,0.22,0.5,0.47,0.79,0.59c3.74,1.47,4.37,4.28,4.27,8.05
		c-0.28,10.32-0.1,20.64-0.1,30.91c-4.72,1.25-9.29-1.76-9.44-6.52c-0.27-8.57-3.52-15.69-8.83-22.33
		c-7.1-8.86-7.32-21.19-1.21-30.87c6.07-9.6,17.55-14.44,28.99-12.22c10.92,2.12,19.79,11.08,21.68,21.87
		c1.42,8.11-0.25,15.52-5.51,21.85c-5.11,6.14-7.96,12.99-8.33,20.98C234.24,556.42,230.7,559.16,225.03,558.51z"/>
</g>
<text transform="matrix(1 0 0 1 480.5902 514.1132)" class="st2 st4 st5">DHALIN</text>
<text transform="matrix(1 0 0 1 485.8881 570.9135)" class="st1 st6 st7">Advertisement Agency</text>
</svg>
